# xmcd
# 
# Track frame offsets:
#     183
#     15635
#     32585
#     49495
# 
# Disc length: 857
# 
# Revision: 1
# Processed by: cddbd v1.5.2PL0 Copyright (c) Steve Scherf et al.
# Submitted via: fre:ac v1.0.31
# 
DISCID=2b035704
DTITLE=LSOB - On A Sunday Afternoon
DYEAR=1992
DGENRE=R&B
TTITLE0=On A Sunday Afternoon [Radio Mix]
TTITLE1=On A Sunday Afternoon [Ozone Mix]
TTITLE2=Brown and Proud
TTITLE3=On A Sunday Afternoon [Album Mix]
EXTD=
EXTT0=
EXTT1=
EXTT2=
EXTT3=
PLAYORDER=
